<?xml version="1.0" encoding="us-ascii" standalone="no"?><svg xmlns="http://www.w3.org/2000/svg" xmlns:xlink="http://www.w3.org/1999/xlink" contentStyleType="text/css" height="1058px" preserveAspectRatio="none" style="width:2992px;height:1058px;background:#FFFFFF;" version="1.1" viewBox="0 0 2992 1058" width="2992px" zoomAndPan="magnify"><defs/><g><!--cluster domain--><g id="cluster_domain"><path d="M8.5,134 L69.5,134 A3.75,3.75 0 0 1 72,136.5 L79,156.2969 L656.5,156.2969 A2.5,2.5 0 0 1 659,158.7969 L659,1048.5 A2.5,2.5 0 0 1 656.5,1051 L8.5,1051 A2.5,2.5 0 0 1 6,1048.5 L6,136.5 A2.5,2.5 0 0 1 8.5,134 " fill="#DDDDDD" style="stroke:#000000;stroke-width:1.5;"/><line style="stroke:#000000;stroke-width:1.5;" x1="6" x2="79" y1="156.2969" y2="156.2969"/><text fill="#000000" font-family="sans-serif" font-size="14" font-weight="bold" lengthAdjust="spacing" textLength="60" x="10" y="148.9951">domain</text></g><!--cluster util--><g id="cluster_util"><path d="M685.5,199 L714.5,199 A3.75,3.75 0 0 1 717,201.5 L724,221.2969 L2721.5,221.2969 A2.5,2.5 0 0 1 2724,223.7969 L2724,932 A2.5,2.5 0 0 1 2721.5,934.5 L685.5,934.5 A2.5,2.5 0 0 1 683,932 L683,201.5 A2.5,2.5 0 0 1 685.5,199 " fill="none" style="stroke:#000000;stroke-width:1.5;"/><line style="stroke:#000000;stroke-width:1.5;" x1="683" x2="724" y1="221.2969" y2="221.2969"/><text fill="#000000" font-family="sans-serif" font-size="14" font-weight="bold" lengthAdjust="spacing" textLength="28" x="687" y="213.9951">util</text></g><!--cluster comparators--><g id="cluster_comparators"><path d="M1025.5,332 L1131.5,332 A3.75,3.75 0 0 1 1134,334.5 L1141,354.2969 L1330.5,354.2969 A2.5,2.5 0 0 1 1333,356.7969 L1333,444.5 A2.5,2.5 0 0 1 1330.5,447 L1025.5,447 A2.5,2.5 0 0 1 1023,444.5 L1023,334.5 A2.5,2.5 0 0 1 1025.5,332 " fill="#DDDDDD" style="stroke:#000000;stroke-width:1.5;"/><line style="stroke:#000000;stroke-width:1.5;" x1="1023" x2="1141" y1="354.2969" y2="354.2969"/><text fill="#000000" font-family="sans-serif" font-size="14" font-weight="bold" lengthAdjust="spacing" textLength="105" x="1027" y="346.9951">comparators</text></g><!--cluster io--><g id="cluster_io"><path d="M1359.5,242 L1375.5,242 A3.75,3.75 0 0 1 1378,244.5 L1385,264.2969 L2697.5,264.2969 A2.5,2.5 0 0 1 2700,266.7969 L2700,534.5 A2.5,2.5 0 0 1 2697.5,537 L1359.5,537 A2.5,2.5 0 0 1 1357,534.5 L1357,244.5 A2.5,2.5 0 0 1 1359.5,242 " fill="none" style="stroke:#000000;stroke-width:1.5;"/><line style="stroke:#000000;stroke-width:1.5;" x1="1357" x2="1385" y1="264.2969" y2="264.2969"/><text fill="#000000" font-family="sans-serif" font-size="14" font-weight="bold" lengthAdjust="spacing" textLength="15" x="1361" y="256.9951">io</text></g><!--cluster exceptions--><g id="cluster_exceptions"><path d="M911.5,811.5 L1000.5,811.5 A3.75,3.75 0 0 1 1003,814 L1010,833.7969 L2697.5,833.7969 A2.5,2.5 0 0 1 2700,836.2969 L2700,908 A2.5,2.5 0 0 1 2697.5,910.5 L911.5,910.5 A2.5,2.5 0 0 1 909,908 L909,814 A2.5,2.5 0 0 1 911.5,811.5 " fill="none" style="stroke:#000000;stroke-width:1.5;"/><line style="stroke:#000000;stroke-width:1.5;" x1="909" x2="1010" y1="833.7969" y2="833.7969"/><text fill="#000000" font-family="sans-serif" font-size="14" font-weight="bold" lengthAdjust="spacing" textLength="88" x="913" y="826.4951">exceptions</text></g><!--cluster enums--><g id="cluster_enums"><path d="M709.5,323.5 L763.5,323.5 A3.75,3.75 0 0 1 766,326 L773,345.7969 L996.5,345.7969 A2.5,2.5 0 0 1 999,348.2969 L999,453 A2.5,2.5 0 0 1 996.5,455.5 L709.5,455.5 A2.5,2.5 0 0 1 707,453 L707,326 A2.5,2.5 0 0 1 709.5,323.5 " fill="none" style="stroke:#000000;stroke-width:1.5;"/><line style="stroke:#000000;stroke-width:1.5;" x1="707" x2="773" y1="345.7969" y2="345.7969"/><text fill="#000000" font-family="sans-serif" font-size="14" font-weight="bold" lengthAdjust="spacing" textLength="53" x="711" y="338.4951">enums</text></g><!--class Candidato--><g id="elem_Candidato"><rect codeLine="6" fill="#F1F1F1" height="312.8984" id="Candidato" rx="2.5" ry="2.5" style="stroke:#181818;stroke-width:0.5;" width="280" x="22" y="714"/><ellipse cx="121.25" cy="730" fill="#ADD1B2" rx="11" ry="11" style="stroke:#181818;stroke-width:1.0;"/><path d="M123.5938,725.6719 C122.6563,725.2344 122.0625,725.0938 121.1875,725.0938 C118.5625,725.0938 116.5625,727.1719 116.5625,729.8906 L116.5625,731.0156 C116.5625,733.5938 118.6719,735.4844 121.5625,735.4844 C122.7813,735.4844 123.9375,735.1875 124.6875,734.6406 C125.2656,734.2344 125.5938,733.7813 125.5938,733.3906 C125.5938,732.9375 125.2031,732.5469 124.7344,732.5469 C124.5156,732.5469 124.3125,732.625 124.125,732.8125 C123.6719,733.2969 123.6719,733.2969 123.4844,733.3906 C123.0625,733.6563 122.375,733.7813 121.6094,733.7813 C119.5625,733.7813 118.2656,732.6875 118.2656,730.9844 L118.2656,729.8906 C118.2656,728.1094 119.5156,726.7969 121.25,726.7969 C121.8281,726.7969 122.4375,726.9531 122.9063,727.2031 C123.3906,727.4844 123.5625,727.7031 123.6563,728.1094 C123.7188,728.5156 123.75,728.6406 123.8906,728.7656 C124.0313,728.9063 124.2656,729.0156 124.4844,729.0156 C124.75,729.0156 125.0156,728.875 125.1875,728.6563 C125.2969,728.5 125.3281,728.3125 125.3281,727.8906 L125.3281,726.4688 C125.3281,726.0313 125.3125,725.9063 125.2188,725.75 C125.0625,725.4844 124.7813,725.3438 124.4844,725.3438 C124.1875,725.3438 123.9844,725.4375 123.7656,725.75 L123.5938,725.6719 Z " fill="#000000"/><text fill="#000000" font-family="sans-serif" font-size="14" lengthAdjust="spacing" textLength="73" x="141.75" y="734.8467">Candidato</text><line style="stroke:#181818;stroke-width:0.5;" x1="23" x2="301" y1="746" y2="746"/><rect fill="none" height="6" style="stroke:#C82930;stroke-width:1.0;" width="6" x="30" y="756.6484"/><text fill="#000000" font-family="sans-serif" font-size="14" lengthAdjust="spacing" textLength="157" x="42" y="762.9951">numeroCandidato: int</text><rect fill="none" height="6" style="stroke:#C82930;stroke-width:1.0;" width="6" x="30" y="772.9453"/><text fill="#000000" font-family="sans-serif" font-size="14" lengthAdjust="spacing" textLength="199" x="42" y="779.292">nomeCandidatoUrna: String</text><rect fill="none" height="6" style="stroke:#C82930;stroke-width:1.0;" width="6" x="30" y="789.2422"/><text fill="#000000" font-family="sans-serif" font-size="14" lengthAdjust="spacing" textLength="218" x="42" y="795.5889">dataDeNascimento: LocalDate</text><rect fill="none" height="6" style="stroke:#C82930;stroke-width:1.0;" width="6" x="30" y="805.5391"/><text fill="#000000" font-family="sans-serif" font-size="14" lengthAdjust="spacing" textLength="254" x="42" y="811.8857">codigoSituacaoTotalTurno: boolean</text><rect fill="none" height="6" style="stroke:#C82930;stroke-width:1.0;" width="6" x="30" y="821.8359"/><text fill="#000000" font-family="sans-serif" font-size="14" lengthAdjust="spacing" textLength="113" x="42" y="828.1826">genero: Genero</text><rect fill="none" height="6" style="stroke:#C82930;stroke-width:1.0;" width="6" x="30" y="838.1328"/><text fill="#000000" font-family="sans-serif" font-size="14" lengthAdjust="spacing" textLength="248" x="42" y="844.4795">nomeTipoDestinacaoVotos: String</text><rect fill="none" height="6" style="stroke:#C82930;stroke-width:1.0;" width="6" x="30" y="854.4297"/><text fill="#000000" font-family="sans-serif" font-size="14" lengthAdjust="spacing" textLength="151" x="42" y="860.7764">quantidadeVotos: int</text><rect fill="none" height="6" style="stroke:#C82930;stroke-width:1.0;" width="6" x="30" y="870.7266"/><text fill="#000000" font-family="sans-serif" font-size="14" lengthAdjust="spacing" textLength="125" x="42" y="877.0732">eleitoPosicao: int</text><rect fill="none" height="6" style="stroke:#C82930;stroke-width:1.0;" width="6" x="30" y="887.0234"/><text fill="#000000" font-family="sans-serif" font-size="14" lengthAdjust="spacing" textLength="122" x="42" y="893.3701">posicaoGeral: int</text><rect fill="none" height="6" style="stroke:#C82930;stroke-width:1.0;" width="6" x="30" y="903.3203"/><text fill="#000000" font-family="sans-serif" font-size="14" lengthAdjust="spacing" textLength="187" x="42" y="909.667">partidoCandidato: Partido</text><text fill="#000000" font-family="sans-serif" font-size="14" lengthAdjust="spacing" textLength="4" x="42" y="925.9639">&#160;</text><line style="stroke:#181818;stroke-width:1.0;stroke-dasharray:1.0,2.0;" x1="23" x2="104.5" y1="941.4141" y2="941.4141"/><text fill="#000000" font-family="sans-serif" font-size="14" lengthAdjust="spacing" textLength="115" x="104.5" y="945.7607">Setters Simples</text><line style="stroke:#181818;stroke-width:1.0;stroke-dasharray:1.0,2.0;" x1="219.5" x2="301" y1="941.4141" y2="941.4141"/><text fill="#000000" font-family="sans-serif" font-size="14" lengthAdjust="spacing" textLength="4" x="42" y="987.0029">&#160;</text><ellipse cx="33" cy="999.9531" fill="#84BE84" rx="3" ry="3" style="stroke:#038048;stroke-width:1.0;"/><text fill="#000000" font-family="sans-serif" font-size="14" lengthAdjust="spacing" textLength="178" x="42" y="1003.2998">compareTo(Candidato o)</text><ellipse cx="33" cy="1016.25" fill="#84BE84" rx="3" ry="3" style="stroke:#038048;stroke-width:1.0;"/><text fill="#000000" font-family="sans-serif" font-size="14" lengthAdjust="spacing" textLength="70" x="42" y="1019.5967">toString()</text><line style="stroke:#181818;stroke-width:1.0;stroke-dasharray:1.0,2.0;" x1="23" x2="103.5" y1="965.8594" y2="965.8594"/><text fill="#000000" font-family="sans-serif" font-size="14" lengthAdjust="spacing" textLength="117" x="103.5" y="970.2061">Getters Simples</text><line style="stroke:#181818;stroke-width:1.0;stroke-dasharray:1.0,2.0;" x1="220.5" x2="301" y1="965.8594" y2="965.8594"/></g><!--class Partido--><g id="elem_Partido"><rect codeLine="25" fill="#F1F1F1" height="329.1953" id="Partido" rx="2.5" ry="2.5" style="stroke:#181818;stroke-width:0.5;" width="306" x="337" y="706"/><ellipse cx="459.75" cy="722" fill="#ADD1B2" rx="11" ry="11" style="stroke:#181818;stroke-width:1.0;"/><path d="M462.0938,717.6719 C461.1563,717.2344 460.5625,717.0938 459.6875,717.0938 C457.0625,717.0938 455.0625,719.1719 455.0625,721.8906 L455.0625,723.0156 C455.0625,725.5938 457.1719,727.4844 460.0625,727.4844 C461.2813,727.4844 462.4375,727.1875 463.1875,726.6406 C463.7656,726.2344 464.0938,725.7813 464.0938,725.3906 C464.0938,724.9375 463.7031,724.5469 463.2344,724.5469 C463.0156,724.5469 462.8125,724.625 462.625,724.8125 C462.1719,725.2969 462.1719,725.2969 461.9844,725.3906 C461.5625,725.6563 460.875,725.7813 460.1094,725.7813 C458.0625,725.7813 456.7656,724.6875 456.7656,722.9844 L456.7656,721.8906 C456.7656,720.1094 458.0156,718.7969 459.75,718.7969 C460.3281,718.7969 460.9375,718.9531 461.4063,719.2031 C461.8906,719.4844 462.0625,719.7031 462.1563,720.1094 C462.2188,720.5156 462.25,720.6406 462.3906,720.7656 C462.5313,720.9063 462.7656,721.0156 462.9844,721.0156 C463.25,721.0156 463.5156,720.875 463.6875,720.6563 C463.7969,720.5 463.8281,720.3125 463.8281,719.8906 L463.8281,718.4688 C463.8281,718.0313 463.8125,717.9063 463.7188,717.75 C463.5625,717.4844 463.2813,717.3438 462.9844,717.3438 C462.6875,717.3438 462.4844,717.4375 462.2656,717.75 L462.0938,717.6719 Z " fill="#000000"/><text fill="#000000" font-family="sans-serif" font-size="14" lengthAdjust="spacing" textLength="52" x="480.25" y="726.8467">Partido</text><line style="stroke:#181818;stroke-width:0.5;" x1="338" x2="642" y1="738" y2="738"/><rect fill="none" height="6" style="stroke:#C82930;stroke-width:1.0;" width="6" x="345" y="748.6484"/><text fill="#000000" font-family="sans-serif" font-size="14" lengthAdjust="spacing" textLength="136" x="357" y="754.9951">numeroPartido: int</text><rect fill="none" height="6" style="stroke:#C82930;stroke-width:1.0;" width="6" x="345" y="764.9453"/><text fill="#000000" font-family="sans-serif" font-size="14" lengthAdjust="spacing" textLength="137" x="357" y="771.292">siglaPartido: String</text><rect fill="none" height="6" style="stroke:#C82930;stroke-width:1.0;" width="6" x="345" y="781.2422"/><text fill="#000000" font-family="sans-serif" font-size="14" lengthAdjust="spacing" textLength="158" x="357" y="787.5889">numeroFederacao: int</text><rect fill="none" height="6" style="stroke:#C82930;stroke-width:1.0;" width="6" x="345" y="797.5391"/><text fill="#000000" font-family="sans-serif" font-size="14" lengthAdjust="spacing" textLength="148" x="357" y="803.8857">votosNaLegenda: int</text><rect fill="none" height="6" style="stroke:#C82930;stroke-width:1.0;" width="6" x="345" y="813.8359"/><text fill="#000000" font-family="sans-serif" font-size="14" lengthAdjust="spacing" textLength="84" x="357" y="820.1826">posicao: int</text><rect fill="none" height="6" style="stroke:#C82930;stroke-width:1.0;" width="6" x="345" y="830.1328"/><text fill="#000000" font-family="sans-serif" font-size="14" lengthAdjust="spacing" textLength="280" x="357" y="836.4795">candidatosDoPartido: List&lt;Candidato&gt;</text><text fill="#000000" font-family="sans-serif" font-size="14" lengthAdjust="spacing" textLength="4" x="357" y="852.7764">&#160;</text><line style="stroke:#181818;stroke-width:1.0;stroke-dasharray:1.0,2.0;" x1="338" x2="432.5" y1="868.2266" y2="868.2266"/><text fill="#000000" font-family="sans-serif" font-size="14" lengthAdjust="spacing" textLength="115" x="432.5" y="872.5732">Setters Simples</text><line style="stroke:#181818;stroke-width:1.0;stroke-dasharray:1.0,2.0;" x1="547.5" x2="642" y1="868.2266" y2="868.2266"/><text fill="#000000" font-family="sans-serif" font-size="14" lengthAdjust="spacing" textLength="4" x="357" y="913.8154">&#160;</text><ellipse cx="348" cy="926.7656" fill="#84BE84" rx="3" ry="3" style="stroke:#038048;stroke-width:1.0;"/><text fill="#000000" font-family="sans-serif" font-size="14" lengthAdjust="spacing" textLength="142" x="357" y="930.1123">getVotosNominais()</text><ellipse cx="348" cy="943.0625" fill="#84BE84" rx="3" ry="3" style="stroke:#038048;stroke-width:1.0;"/><text fill="#000000" font-family="sans-serif" font-size="14" lengthAdjust="spacing" textLength="121" x="357" y="946.4092">getVotosTotais()</text><ellipse cx="348" cy="959.3594" fill="#84BE84" rx="3" ry="3" style="stroke:#038048;stroke-width:1.0;"/><text fill="#000000" font-family="sans-serif" font-size="14" lengthAdjust="spacing" textLength="238" x="357" y="962.7061">getQuantidadeDeEleitosPartido()</text><ellipse cx="348" cy="975.6563" fill="#84BE84" rx="3" ry="3" style="stroke:#038048;stroke-width:1.0;"/><text fill="#000000" font-family="sans-serif" font-size="14" lengthAdjust="spacing" textLength="141" x="357" y="979.0029">getCandidatosList()</text><ellipse cx="348" cy="991.9531" fill="#84BE84" rx="3" ry="3" style="stroke:#038048;stroke-width:1.0;"/><text fill="#000000" font-family="sans-serif" font-size="14" lengthAdjust="spacing" textLength="216" x="357" y="995.2998">candidatoMaisVotadoPartido()</text><ellipse cx="348" cy="1008.25" fill="#84BE84" rx="3" ry="3" style="stroke:#038048;stroke-width:1.0;"/><text fill="#000000" font-family="sans-serif" font-size="14" lengthAdjust="spacing" textLength="231" x="357" y="1011.5967">candidatoMenosVotadoPartido()</text><ellipse cx="348" cy="1024.5469" fill="#84BE84" rx="3" ry="3" style="stroke:#038048;stroke-width:1.0;"/><text fill="#000000" font-family="sans-serif" font-size="14" lengthAdjust="spacing" textLength="167" x="357" y="1027.8936">compareTo(Partido p0)</text><line style="stroke:#181818;stroke-width:1.0;stroke-dasharray:1.0,2.0;" x1="338" x2="431.5" y1="892.6719" y2="892.6719"/><text fill="#000000" font-family="sans-serif" font-size="14" lengthAdjust="spacing" textLength="117" x="431.5" y="897.0186">Getters Simples</text><line style="stroke:#181818;stroke-width:1.0;stroke-dasharray:1.0,2.0;" x1="548.5" x2="642" y1="892.6719" y2="892.6719"/></g><!--class Eleicao--><g id="elem_Eleicao"><rect codeLine="45" fill="#F1F1F1" height="459.5703" id="Eleicao" rx="2.5" ry="2.5" style="stroke:#181818;stroke-width:0.5;" width="546" x="60" y="169"/><ellipse cx="303.25" cy="185" fill="#ADD1B2" rx="11" ry="11" style="stroke:#181818;stroke-width:1.0;"/><path d="M305.5938,180.6719 C304.6563,180.2344 304.0625,180.0938 303.1875,180.0938 C300.5625,180.0938 298.5625,182.1719 298.5625,184.8906 L298.5625,186.0156 C298.5625,188.5938 300.6719,190.4844 303.5625,190.4844 C304.7813,190.4844 305.9375,190.1875 306.6875,189.6406 C307.2656,189.2344 307.5938,188.7813 307.5938,188.3906 C307.5938,187.9375 307.2031,187.5469 306.7344,187.5469 C306.5156,187.5469 306.3125,187.625 306.125,187.8125 C305.6719,188.2969 305.6719,188.2969 305.4844,188.3906 C305.0625,188.6563 304.375,188.7813 303.6094,188.7813 C301.5625,188.7813 300.2656,187.6875 300.2656,185.9844 L300.2656,184.8906 C300.2656,183.1094 301.5156,181.7969 303.25,181.7969 C303.8281,181.7969 304.4375,181.9531 304.9063,182.2031 C305.3906,182.4844 305.5625,182.7031 305.6563,183.1094 C305.7188,183.5156 305.75,183.6406 305.8906,183.7656 C306.0313,183.9063 306.2656,184.0156 306.4844,184.0156 C306.75,184.0156 307.0156,183.875 307.1875,183.6563 C307.2969,183.5 307.3281,183.3125 307.3281,182.8906 L307.3281,181.4688 C307.3281,181.0313 307.3125,180.9063 307.2188,180.75 C307.0625,180.4844 306.7813,180.3438 306.4844,180.3438 C306.1875,180.3438 305.9844,180.4375 305.7656,180.75 L305.5938,180.6719 Z " fill="#000000"/><text fill="#000000" font-family="sans-serif" font-size="14" lengthAdjust="spacing" textLength="51" x="323.75" y="189.8467">Eleicao</text><line style="stroke:#181818;stroke-width:0.5;" x1="61" x2="605" y1="201" y2="201"/><rect fill="none" height="6" style="stroke:#C82930;stroke-width:1.0;" width="6" x="68" y="211.6484"/><text fill="#000000" font-family="sans-serif" font-size="14" lengthAdjust="spacing" textLength="273" x="80" y="217.9951">candidatos: Map&lt;Integer, Candidato&gt;</text><rect fill="none" height="6" style="stroke:#C82930;stroke-width:1.0;" width="6" x="68" y="227.9453"/><text fill="#000000" font-family="sans-serif" font-size="14" lengthAdjust="spacing" textLength="234" x="80" y="234.292">partidos: Map&lt;Integer, Partido&gt;</text><rect fill="none" height="6" style="stroke:#C82930;stroke-width:1.0;" width="6" x="68" y="244.2422"/><text fill="#000000" font-family="sans-serif" font-size="14" lengthAdjust="spacing" textLength="385" x="80" y="250.5889">legendasPartidosCandidatos: Map&lt;Integer, Partido&gt;4</text><rect fill="none" height="6" style="stroke:#C82930;stroke-width:1.0;" width="6" x="68" y="260.5391"/><text fill="#000000" font-family="sans-serif" font-size="14" lengthAdjust="spacing" textLength="134" x="80" y="266.8857">votosNominais: int</text><rect fill="none" height="6" style="stroke:#C82930;stroke-width:1.0;" width="6" x="68" y="276.8359"/><text fill="#000000" font-family="sans-serif" font-size="14" lengthAdjust="spacing" textLength="130" x="80" y="283.1826">votosLegenda: int</text><rect fill="none" height="6" style="stroke:#C82930;stroke-width:1.0;" width="6" x="68" y="293.1328"/><text fill="#000000" font-family="sans-serif" font-size="14" lengthAdjust="spacing" textLength="173" x="80" y="299.4795">tipoEleicao: TipoEleicao</text><rect fill="none" height="6" style="stroke:#C82930;stroke-width:1.0;" width="6" x="68" y="309.4297"/><text fill="#000000" font-family="sans-serif" font-size="14" lengthAdjust="spacing" textLength="164" x="80" y="315.7764">dataEleicao: LocalDate</text><text fill="#000000" font-family="sans-serif" font-size="14" lengthAdjust="spacing" textLength="4" x="80" y="332.0732">&#160;</text><line style="stroke:#181818;stroke-width:1.0;stroke-dasharray:1.0,2.0;" x1="61" x2="275.5" y1="347.5234" y2="347.5234"/><text fill="#000000" font-family="sans-serif" font-size="14" lengthAdjust="spacing" textLength="115" x="275.5" y="351.8701">Setters Simples</text><line style="stroke:#181818;stroke-width:1.0;stroke-dasharray:1.0,2.0;" x1="390.5" x2="605" y1="347.5234" y2="347.5234"/><text fill="#000000" font-family="sans-serif" font-size="14" lengthAdjust="spacing" textLength="4" x="80" y="393.1123">&#160;</text><ellipse cx="71" cy="406.0625" fill="#84BE84" rx="3" ry="3" style="stroke:#038048;stroke-width:1.0;"/><text fill="#000000" font-family="sans-serif" font-size="14" lengthAdjust="spacing" textLength="520" x="80" y="409.4092">addPartido(int numeroPartido, String siglaPartido, int numeroFederacao)</text><ellipse cx="71" cy="422.3594" fill="#84BE84" rx="3" ry="3" style="stroke:#038048;stroke-width:1.0;"/><text fill="#000000" font-family="sans-serif" font-size="14" lengthAdjust="spacing" textLength="109" x="80" y="425.7061">addCandidato()</text><ellipse cx="71" cy="438.6563" fill="#84BE84" rx="3" ry="3" style="stroke:#038048;stroke-width:1.0;"/><text fill="#000000" font-family="sans-serif" font-size="14" lengthAdjust="spacing" textLength="498" x="80" y="442.0029">addLegendaPartidoCandidatos(int numeroCandidato, Partido partido)</text><ellipse cx="71" cy="454.9531" fill="#84BE84" rx="3" ry="3" style="stroke:#038048;stroke-width:1.0;"/><text fill="#000000" font-family="sans-serif" font-size="14" lengthAdjust="spacing" textLength="223" x="80" y="458.2998">getNumeroDeVagasDaEleicao()</text><ellipse cx="71" cy="471.25" fill="#84BE84" rx="3" ry="3" style="stroke:#038048;stroke-width:1.0;"/><text fill="#000000" font-family="sans-serif" font-size="14" lengthAdjust="spacing" textLength="164" x="80" y="474.5967">getCandidatosEleitos()</text><ellipse cx="71" cy="487.5469" fill="#84BE84" rx="3" ry="3" style="stroke:#038048;stroke-width:1.0;"/><text fill="#000000" font-family="sans-serif" font-size="14" lengthAdjust="spacing" textLength="176" x="80" y="490.8936">getTodosOsCandidatos()</text><ellipse cx="71" cy="503.8438" fill="#84BE84" rx="3" ry="3" style="stroke:#038048;stroke-width:1.0;"/><text fill="#000000" font-family="sans-serif" font-size="14" lengthAdjust="spacing" textLength="205" x="80" y="507.1904">getCandidatosMaisVotados()</text><ellipse cx="71" cy="520.1406" fill="#84BE84" rx="3" ry="3" style="stroke:#038048;stroke-width:1.0;"/><text fill="#000000" font-family="sans-serif" font-size="14" lengthAdjust="spacing" textLength="309" x="80" y="523.4873">getCandidatosEleitosSeEleicaoMajoritaria()</text><ellipse cx="71" cy="536.4375" fill="#84BE84" rx="3" ry="3" style="stroke:#038048;stroke-width:1.0;"/><text fill="#000000" font-family="sans-serif" font-size="14" lengthAdjust="spacing" textLength="255" x="80" y="539.7842">getCandidatosEleitosProporcional()</text><ellipse cx="71" cy="552.7344" fill="#84BE84" rx="3" ry="3" style="stroke:#038048;stroke-width:1.0;"/><text fill="#000000" font-family="sans-serif" font-size="14" lengthAdjust="spacing" textLength="120" x="80" y="556.0811">getPartidosList()</text><ellipse cx="71" cy="569.0313" fill="#84BE84" rx="3" ry="3" style="stroke:#038048;stroke-width:1.0;"/><text fill="#000000" font-family="sans-serif" font-size="14" lengthAdjust="spacing" textLength="275" x="80" y="572.3779">getPartidosOrdenadosPorCandidatos()</text><ellipse cx="71" cy="585.3281" fill="#84BE84" rx="3" ry="3" style="stroke:#038048;stroke-width:1.0;"/><text fill="#000000" font-family="sans-serif" font-size="14" lengthAdjust="spacing" textLength="202" x="80" y="588.6748">quantidadeEleitosPorIdade()</text><ellipse cx="71" cy="601.625" fill="#84BE84" rx="3" ry="3" style="stroke:#038048;stroke-width:1.0;"/><text fill="#000000" font-family="sans-serif" font-size="14" lengthAdjust="spacing" textLength="197" x="80" y="604.9717">quantidadeHomensEleitos()</text><ellipse cx="71" cy="617.9219" fill="#84BE84" rx="3" ry="3" style="stroke:#038048;stroke-width:1.0;"/><text fill="#000000" font-family="sans-serif" font-size="14" lengthAdjust="spacing" textLength="202" x="80" y="621.2686">quantidadeMulheresEleitas()</text><line style="stroke:#181818;stroke-width:1.0;stroke-dasharray:1.0,2.0;" x1="61" x2="274.5" y1="371.9688" y2="371.9688"/><text fill="#000000" font-family="sans-serif" font-size="14" lengthAdjust="spacing" textLength="117" x="274.5" y="376.3154">Getters Simples</text><line style="stroke:#181818;stroke-width:1.0;stroke-dasharray:1.0,2.0;" x1="391.5" x2="605" y1="371.9688" y2="371.9688"/></g><!--class PartidoComaparadorPorCandidato--><g id="elem_PartidoComaparadorPorCandidato"><rect codeLine="75" fill="#F1F1F1" height="64.2969" id="PartidoComaparadorPorCandidato" rx="2.5" ry="2.5" style="stroke:#181818;stroke-width:0.5;" width="278" x="1039" y="367"/><ellipse cx="1054" cy="383" fill="#ADD1B2" rx="11" ry="11" style="stroke:#181818;stroke-width:1.0;"/><path d="M1056.3438,378.6719 C1055.4063,378.2344 1054.8125,378.0938 1053.9375,378.0938 C1051.3125,378.0938 1049.3125,380.1719 1049.3125,382.8906 L1049.3125,384.0156 C1049.3125,386.5938 1051.4219,388.4844 1054.3125,388.4844 C1055.5313,388.4844 1056.6875,388.1875 1057.4375,387.6406 C1058.0156,387.2344 1058.3438,386.7813 1058.3438,386.3906 C1058.3438,385.9375 1057.9531,385.5469 1057.4844,385.5469 C1057.2656,385.5469 1057.0625,385.625 1056.875,385.8125 C1056.4219,386.2969 1056.4219,386.2969 1056.2344,386.3906 C1055.8125,386.6563 1055.125,386.7813 1054.3594,386.7813 C1052.3125,386.7813 1051.0156,385.6875 1051.0156,383.9844 L1051.0156,382.8906 C1051.0156,381.1094 1052.2656,379.7969 1054,379.7969 C1054.5781,379.7969 1055.1875,379.9531 1055.6563,380.2031 C1056.1406,380.4844 1056.3125,380.7031 1056.4063,381.1094 C1056.4688,381.5156 1056.5,381.6406 1056.6406,381.7656 C1056.7813,381.9063 1057.0156,382.0156 1057.2344,382.0156 C1057.5,382.0156 1057.7656,381.875 1057.9375,381.6563 C1058.0469,381.5 1058.0781,381.3125 1058.0781,380.8906 L1058.0781,379.4688 C1058.0781,379.0313 1058.0625,378.9063 1057.9688,378.75 C1057.8125,378.4844 1057.5313,378.3438 1057.2344,378.3438 C1056.9375,378.3438 1056.7344,378.4375 1056.5156,378.75 L1056.3438,378.6719 Z " fill="#000000"/><text fill="#000000" font-family="sans-serif" font-size="14" lengthAdjust="spacing" textLength="246" x="1068" y="387.8467">PartidoComaparadorPorCandidato</text><line style="stroke:#181818;stroke-width:0.5;" x1="1040" x2="1316" y1="399" y2="399"/><line style="stroke:#181818;stroke-width:0.5;" x1="1040" x2="1316" y1="407" y2="407"/><ellipse cx="1050" cy="420.6484" fill="#84BE84" rx="3" ry="3" style="stroke:#038048;stroke-width:1.0;"/><text fill="#000000" font-family="sans-serif" font-size="14" lengthAdjust="spacing" textLength="231" x="1059" y="423.9951">compare(Partido p1, Partido p2)</text></g><!--class InputServices--><g id="elem_InputServices"><rect codeLine="81" fill="#F1F1F1" height="243.5625" id="InputServices" rx="2.5" ry="2.5" style="stroke:#181818;stroke-width:0.5;" width="708" x="1373" y="277"/><ellipse cx="1673.75" cy="293" fill="#ADD1B2" rx="11" ry="11" style="stroke:#181818;stroke-width:1.0;"/><path d="M1676.0938,288.6719 C1675.1563,288.2344 1674.5625,288.0938 1673.6875,288.0938 C1671.0625,288.0938 1669.0625,290.1719 1669.0625,292.8906 L1669.0625,294.0156 C1669.0625,296.5938 1671.1719,298.4844 1674.0625,298.4844 C1675.2813,298.4844 1676.4375,298.1875 1677.1875,297.6406 C1677.7656,297.2344 1678.0938,296.7813 1678.0938,296.3906 C1678.0938,295.9375 1677.7031,295.5469 1677.2344,295.5469 C1677.0156,295.5469 1676.8125,295.625 1676.625,295.8125 C1676.1719,296.2969 1676.1719,296.2969 1675.9844,296.3906 C1675.5625,296.6563 1674.875,296.7813 1674.1094,296.7813 C1672.0625,296.7813 1670.7656,295.6875 1670.7656,293.9844 L1670.7656,292.8906 C1670.7656,291.1094 1672.0156,289.7969 1673.75,289.7969 C1674.3281,289.7969 1674.9375,289.9531 1675.4063,290.2031 C1675.8906,290.4844 1676.0625,290.7031 1676.1563,291.1094 C1676.2188,291.5156 1676.25,291.6406 1676.3906,291.7656 C1676.5313,291.9063 1676.7656,292.0156 1676.9844,292.0156 C1677.25,292.0156 1677.5156,291.875 1677.6875,291.6563 C1677.7969,291.5 1677.8281,291.3125 1677.8281,290.8906 L1677.8281,289.4688 C1677.8281,289.0313 1677.8125,288.9063 1677.7188,288.75 C1677.5625,288.4844 1677.2813,288.3438 1676.9844,288.3438 C1676.6875,288.3438 1676.4844,288.4375 1676.2656,288.75 L1676.0938,288.6719 Z " fill="#000000"/><text fill="#000000" font-family="sans-serif" font-size="14" lengthAdjust="spacing" textLength="98" x="1694.25" y="297.8467">InputServices</text><line style="stroke:#181818;stroke-width:0.5;" x1="1374" x2="2080" y1="309" y2="309"/><line style="stroke:#181818;stroke-width:0.5;" x1="1374" x2="2080" y1="317" y2="317"/><ellipse cx="1384" cy="330.6484" fill="#84BE84" rx="3" ry="3" style="stroke:#038048;stroke-width:1.0;"/><text fill="#000000" font-family="sans-serif" font-size="14" lengthAdjust="spacing" text-decoration="underline" textLength="253" x="1393" y="333.9951">createBufferedReader(String path)</text><ellipse cx="1384" cy="346.9453" fill="#84BE84" rx="3" ry="3" style="stroke:#038048;stroke-width:1.0;"/><text fill="#000000" font-family="sans-serif" font-size="14" lengthAdjust="spacing" text-decoration="underline" textLength="571" x="1393" y="350.292">processarArquivoCandidatos(BufferedReader bufferCandidatos, Eleicao eleicao)</text><ellipse cx="1384" cy="363.2422" fill="#84BE84" rx="3" ry="3" style="stroke:#038048;stroke-width:1.0;"/><text fill="#000000" font-family="sans-serif" font-size="14" lengthAdjust="spacing" text-decoration="underline" textLength="529" x="1393" y="366.5889">processarArquivoVotacao(BufferedReader bufferVotacao, Eleicao eleicao)</text><rect fill="#F24D5C" height="6" style="stroke:#C82930;stroke-width:1.0;" width="6" x="1381" y="376.5391"/><text fill="#000000" font-family="sans-serif" font-size="14" lengthAdjust="spacing" text-decoration="underline" textLength="253" x="1393" y="382.8857">inputFormatter(String currentLine)</text><rect fill="#F24D5C" height="6" style="stroke:#C82930;stroke-width:1.0;" width="6" x="1381" y="392.8359"/><text fill="#000000" font-family="sans-serif" font-size="14" lengthAdjust="spacing" text-decoration="underline" textLength="379" x="1393" y="399.1826">updatePartidos(Eleicao eleicao, String[] currentData)</text><rect fill="#F24D5C" height="6" style="stroke:#C82930;stroke-width:1.0;" width="6" x="1381" y="409.1328"/><text fill="#000000" font-family="sans-serif" font-size="14" lengthAdjust="spacing" text-decoration="underline" textLength="682" x="1393" y="415.4795">isValidCandidato(String codigoCargo, String codigoDetalhesSituacaoCandidato, int tipoEleicao)</text><rect fill="#F24D5C" height="6" style="stroke:#C82930;stroke-width:1.0;" width="6" x="1381" y="425.4297"/><text fill="#000000" font-family="sans-serif" font-size="14" lengthAdjust="spacing" text-decoration="underline" textLength="510" x="1393" y="431.7764">updateCandidato(Eleicao eleicao, String[] currentData, Partido partido)</text><rect fill="#F24D5C" height="6" style="stroke:#C82930;stroke-width:1.0;" width="6" x="1381" y="441.7266"/><text fill="#000000" font-family="sans-serif" font-size="14" lengthAdjust="spacing" text-decoration="underline" textLength="243" x="1393" y="448.0732">isCandidatoEleito(String situacao)</text><rect fill="#F24D5C" height="6" style="stroke:#C82930;stroke-width:1.0;" width="6" x="1381" y="458.0234"/><text fill="#000000" font-family="sans-serif" font-size="14" lengthAdjust="spacing" text-decoration="underline" textLength="579" x="1393" y="464.3701">updateCandidatosInvalidos(Eleicao eleicao, String[] currentData, Partido partido)</text><rect fill="#F24D5C" height="6" style="stroke:#C82930;stroke-width:1.0;" width="6" x="1381" y="474.3203"/><text fill="#000000" font-family="sans-serif" font-size="14" lengthAdjust="spacing" text-decoration="underline" textLength="517" x="1393" y="480.667">isVotoValido(String codigoCargo, int tipoEleicao, String numeroVotavel)</text><rect fill="#F24D5C" height="6" style="stroke:#C82930;stroke-width:1.0;" width="6" x="1381" y="490.6172"/><text fill="#000000" font-family="sans-serif" font-size="14" lengthAdjust="spacing" text-decoration="underline" textLength="498" x="1393" y="496.9639">processarVotosCandidatoValido(Eleicao eleicao, String[] currentData)</text><rect fill="#F24D5C" height="6" style="stroke:#C82930;stroke-width:1.0;" width="6" x="1381" y="506.9141"/><text fill="#000000" font-family="sans-serif" font-size="14" lengthAdjust="spacing" text-decoration="underline" textLength="509" x="1393" y="513.2607">processarVotosCandidatoInvalido(Eleicao eleicao, String[] currentData)</text></g><!--class OutputServices--><g id="elem_OutputServices"><rect codeLine="98" fill="#F1F1F1" height="243.5625" id="OutputServices" rx="2.5" ry="2.5" style="stroke:#181818;stroke-width:0.5;" width="568" x="2116" y="277"/><ellipse cx="2340.25" cy="293" fill="#ADD1B2" rx="11" ry="11" style="stroke:#181818;stroke-width:1.0;"/><path d="M2342.5938,288.6719 C2341.6563,288.2344 2341.0625,288.0938 2340.1875,288.0938 C2337.5625,288.0938 2335.5625,290.1719 2335.5625,292.8906 L2335.5625,294.0156 C2335.5625,296.5938 2337.6719,298.4844 2340.5625,298.4844 C2341.7813,298.4844 2342.9375,298.1875 2343.6875,297.6406 C2344.2656,297.2344 2344.5938,296.7813 2344.5938,296.3906 C2344.5938,295.9375 2344.2031,295.5469 2343.7344,295.5469 C2343.5156,295.5469 2343.3125,295.625 2343.125,295.8125 C2342.6719,296.2969 2342.6719,296.2969 2342.4844,296.3906 C2342.0625,296.6563 2341.375,296.7813 2340.6094,296.7813 C2338.5625,296.7813 2337.2656,295.6875 2337.2656,293.9844 L2337.2656,292.8906 C2337.2656,291.1094 2338.5156,289.7969 2340.25,289.7969 C2340.8281,289.7969 2341.4375,289.9531 2341.9063,290.2031 C2342.3906,290.4844 2342.5625,290.7031 2342.6563,291.1094 C2342.7188,291.5156 2342.75,291.6406 2342.8906,291.7656 C2343.0313,291.9063 2343.2656,292.0156 2343.4844,292.0156 C2343.75,292.0156 2344.0156,291.875 2344.1875,291.6563 C2344.2969,291.5 2344.3281,291.3125 2344.3281,290.8906 L2344.3281,289.4688 C2344.3281,289.0313 2344.3125,288.9063 2344.2188,288.75 C2344.0625,288.4844 2343.7813,288.3438 2343.4844,288.3438 C2343.1875,288.3438 2342.9844,288.4375 2342.7656,288.75 L2342.5938,288.6719 Z " fill="#000000"/><text fill="#000000" font-family="sans-serif" font-size="14" lengthAdjust="spacing" textLength="111" x="2360.75" y="297.8467">OutputServices</text><line style="stroke:#181818;stroke-width:0.5;" x1="2117" x2="2683" y1="309" y2="309"/><line style="stroke:#181818;stroke-width:0.5;" x1="2117" x2="2683" y1="317" y2="317"/><ellipse cx="2127" cy="330.6484" fill="#84BE84" rx="3" ry="3" style="stroke:#038048;stroke-width:1.0;"/><text fill="#000000" font-family="sans-serif" font-size="14" lengthAdjust="spacing" text-decoration="underline" textLength="266" x="2136" y="333.9951">geracaoDeRelatorios(Eleicao eleicao)</text><rect fill="#F24D5C" height="6" style="stroke:#C82930;stroke-width:1.0;" width="6" x="2124" y="343.9453"/><text fill="#000000" font-family="sans-serif" font-size="14" lengthAdjust="spacing" text-decoration="underline" textLength="420" x="2136" y="350.292">numeroDeVagasEleicao(Eleicao eleicao, NumberFormat nf)</text><rect fill="#F24D5C" height="6" style="stroke:#C82930;stroke-width:1.0;" width="6" x="2124" y="360.2422"/><text fill="#000000" font-family="sans-serif" font-size="14" lengthAdjust="spacing" text-decoration="underline" textLength="379" x="2136" y="366.5889">candidatosEleitos(Eleicao eleicao, NumberFormat nf)</text><rect fill="#F24D5C" height="6" style="stroke:#C82930;stroke-width:1.0;" width="6" x="2124" y="376.5391"/><text fill="#000000" font-family="sans-serif" font-size="14" lengthAdjust="spacing" text-decoration="underline" textLength="420" x="2136" y="382.8857">candidatosMaisVotados(Eleicao eleicao, NumberFormat nf)</text><rect fill="#F24D5C" height="6" style="stroke:#C82930;stroke-width:1.0;" width="6" x="2124" y="392.8359"/><text fill="#000000" font-family="sans-serif" font-size="14" lengthAdjust="spacing" text-decoration="underline" textLength="420" x="2136" y="399.1826">candidatosPrejudicados(Eleicao eleicao, NumberFormat nf)</text><rect fill="#F24D5C" height="6" style="stroke:#C82930;stroke-width:1.0;" width="6" x="2124" y="409.1328"/><text fill="#000000" font-family="sans-serif" font-size="14" lengthAdjust="spacing" text-decoration="underline" textLength="422" x="2136" y="415.4795">candidatosBeneficiados(Eleicao eleicao, NumberFormat nf)</text><rect fill="#F24D5C" height="6" style="stroke:#C82930;stroke-width:1.0;" width="6" x="2124" y="425.4297"/><text fill="#000000" font-family="sans-serif" font-size="14" lengthAdjust="spacing" text-decoration="underline" textLength="497" x="2136" y="431.7764">votacaoPartidosCandidatosEleitos(Eleicao eleicao, NumberFormat nf)</text><rect fill="#F24D5C" height="6" style="stroke:#C82930;stroke-width:1.0;" width="6" x="2124" y="441.7266"/><text fill="#000000" font-family="sans-serif" font-size="14" lengthAdjust="spacing" text-decoration="underline" textLength="529" x="2136" y="448.0732">primeiroEUltimoCandidatoDosPartidos(Eleicao eleicao, NumberFormat nf)</text><rect fill="#F24D5C" height="6" style="stroke:#C82930;stroke-width:1.0;" width="6" x="2124" y="458.0234"/><text fill="#000000" font-family="sans-serif" font-size="14" lengthAdjust="spacing" text-decoration="underline" textLength="528" x="2136" y="464.3701">eleitosPorIdade(Eleicao eleicao, NumberFormat nf, NumberFormat nfDec)</text><rect fill="#F24D5C" height="6" style="stroke:#C82930;stroke-width:1.0;" width="6" x="2124" y="474.3203"/><text fill="#000000" font-family="sans-serif" font-size="14" lengthAdjust="spacing" text-decoration="underline" textLength="542" x="2136" y="480.667">eleitosPorGenero(Eleicao eleicao, NumberFormat nf, NumberFormat nfDec)</text><rect fill="#F24D5C" height="6" style="stroke:#C82930;stroke-width:1.0;" width="6" x="2124" y="490.6172"/><text fill="#000000" font-family="sans-serif" font-size="14" lengthAdjust="spacing" text-decoration="underline" textLength="493" x="2136" y="496.9639">totalVotos(Eleicao eleicao, NumberFormat nf, NumberFormat nfDec)</text><rect fill="#F24D5C" height="6" style="stroke:#C82930;stroke-width:1.0;" width="6" x="2124" y="506.9141"/><text fill="#000000" font-family="sans-serif" font-size="14" lengthAdjust="spacing" text-decoration="underline" textLength="283" x="2136" y="513.2607">filtroSingularPlural(int value, String out)</text></g><!--class ExceptionArquivoCandidatos--><g id="elem_ExceptionArquivoCandidatos"><rect codeLine="115" fill="#F1F1F1" height="48" id="ExceptionArquivoCandidatos" rx="2.5" ry="2.5" style="stroke:#181818;stroke-width:0.5;" width="239" x="1966.5" y="846.5"/><ellipse cx="1981.5" cy="862.5" fill="#ADD1B2" rx="11" ry="11" style="stroke:#181818;stroke-width:1.0;"/><path d="M1983.8438,858.1719 C1982.9063,857.7344 1982.3125,857.5938 1981.4375,857.5938 C1978.8125,857.5938 1976.8125,859.6719 1976.8125,862.3906 L1976.8125,863.5156 C1976.8125,866.0938 1978.9219,867.9844 1981.8125,867.9844 C1983.0313,867.9844 1984.1875,867.6875 1984.9375,867.1406 C1985.5156,866.7344 1985.8438,866.2813 1985.8438,865.8906 C1985.8438,865.4375 1985.4531,865.0469 1984.9844,865.0469 C1984.7656,865.0469 1984.5625,865.125 1984.375,865.3125 C1983.9219,865.7969 1983.9219,865.7969 1983.7344,865.8906 C1983.3125,866.1563 1982.625,866.2813 1981.8594,866.2813 C1979.8125,866.2813 1978.5156,865.1875 1978.5156,863.4844 L1978.5156,862.3906 C1978.5156,860.6094 1979.7656,859.2969 1981.5,859.2969 C1982.0781,859.2969 1982.6875,859.4531 1983.1563,859.7031 C1983.6406,859.9844 1983.8125,860.2031 1983.9063,860.6094 C1983.9688,861.0156 1984,861.1406 1984.1406,861.2656 C1984.2813,861.4063 1984.5156,861.5156 1984.7344,861.5156 C1985,861.5156 1985.2656,861.375 1985.4375,861.1563 C1985.5469,861 1985.5781,860.8125 1985.5781,860.3906 L1985.5781,858.9688 C1985.5781,858.5313 1985.5625,858.4063 1985.4688,858.25 C1985.3125,857.9844 1985.0313,857.8438 1984.7344,857.8438 C1984.4375,857.8438 1984.2344,857.9375 1984.0156,858.25 L1983.8438,858.1719 Z " fill="#000000"/><text fill="#000000" font-family="sans-serif" font-size="14" lengthAdjust="spacing" textLength="207" x="1995.5" y="867.3467">ExceptionArquivoCandidatos</text><line style="stroke:#181818;stroke-width:0.5;" x1="1967.5" x2="2204.5" y1="878.5" y2="878.5"/><line style="stroke:#181818;stroke-width:0.5;" x1="1967.5" x2="2204.5" y1="886.5" y2="886.5"/></g><!--class ExceptionArquivoPartidos--><g id="elem_ExceptionArquivoPartidos"><rect codeLine="119" fill="#F1F1F1" height="48" id="ExceptionArquivoPartidos" rx="2.5" ry="2.5" style="stroke:#181818;stroke-width:0.5;" width="218" x="2241" y="846.5"/><ellipse cx="2256" cy="862.5" fill="#ADD1B2" rx="11" ry="11" style="stroke:#181818;stroke-width:1.0;"/><path d="M2258.3438,858.1719 C2257.4063,857.7344 2256.8125,857.5938 2255.9375,857.5938 C2253.3125,857.5938 2251.3125,859.6719 2251.3125,862.3906 L2251.3125,863.5156 C2251.3125,866.0938 2253.4219,867.9844 2256.3125,867.9844 C2257.5313,867.9844 2258.6875,867.6875 2259.4375,867.1406 C2260.0156,866.7344 2260.3438,866.2813 2260.3438,865.8906 C2260.3438,865.4375 2259.9531,865.0469 2259.4844,865.0469 C2259.2656,865.0469 2259.0625,865.125 2258.875,865.3125 C2258.4219,865.7969 2258.4219,865.7969 2258.2344,865.8906 C2257.8125,866.1563 2257.125,866.2813 2256.3594,866.2813 C2254.3125,866.2813 2253.0156,865.1875 2253.0156,863.4844 L2253.0156,862.3906 C2253.0156,860.6094 2254.2656,859.2969 2256,859.2969 C2256.5781,859.2969 2257.1875,859.4531 2257.6563,859.7031 C2258.1406,859.9844 2258.3125,860.2031 2258.4063,860.6094 C2258.4688,861.0156 2258.5,861.1406 2258.6406,861.2656 C2258.7813,861.4063 2259.0156,861.5156 2259.2344,861.5156 C2259.5,861.5156 2259.7656,861.375 2259.9375,861.1563 C2260.0469,861 2260.0781,860.8125 2260.0781,860.3906 L2260.0781,858.9688 C2260.0781,858.5313 2260.0625,858.4063 2259.9688,858.25 C2259.8125,857.9844 2259.5313,857.8438 2259.2344,857.8438 C2258.9375,857.8438 2258.7344,857.9375 2258.5156,858.25 L2258.3438,858.1719 Z " fill="#000000"/><text fill="#000000" font-family="sans-serif" font-size="14" lengthAdjust="spacing" textLength="186" x="2270" y="867.3467">ExceptionArquivoPartidos</text><line style="stroke:#181818;stroke-width:0.5;" x1="2242" x2="2458" y1="878.5" y2="878.5"/><line style="stroke:#181818;stroke-width:0.5;" x1="2242" x2="2458" y1="886.5" y2="886.5"/></g><!--class ExceptionDataEleicao--><g id="elem_ExceptionDataEleicao"><rect codeLine="123" fill="#F1F1F1" height="48" id="ExceptionDataEleicao" rx="2.5" ry="2.5" style="stroke:#181818;stroke-width:0.5;" width="190" x="2494" y="846.5"/><ellipse cx="2509" cy="862.5" fill="#ADD1B2" rx="11" ry="11" style="stroke:#181818;stroke-width:1.0;"/><path d="M2511.3438,858.1719 C2510.4063,857.7344 2509.8125,857.5938 2508.9375,857.5938 C2506.3125,857.5938 2504.3125,859.6719 2504.3125,862.3906 L2504.3125,863.5156 C2504.3125,866.0938 2506.4219,867.9844 2509.3125,867.9844 C2510.5313,867.9844 2511.6875,867.6875 2512.4375,867.1406 C2513.0156,866.7344 2513.3438,866.2813 2513.3438,865.8906 C2513.3438,865.4375 2512.9531,865.0469 2512.4844,865.0469 C2512.2656,865.0469 2512.0625,865.125 2511.875,865.3125 C2511.4219,865.7969 2511.4219,865.7969 2511.2344,865.8906 C2510.8125,866.1563 2510.125,866.2813 2509.3594,866.2813 C2507.3125,866.2813 2506.0156,865.1875 2506.0156,863.4844 L2506.0156,862.3906 C2506.0156,860.6094 2507.2656,859.2969 2509,859.2969 C2509.5781,859.2969 2510.1875,859.4531 2510.6563,859.7031 C2511.1406,859.9844 2511.3125,860.2031 2511.4063,860.6094 C2511.4688,861.0156 2511.5,861.1406 2511.6406,861.2656 C2511.7813,861.4063 2512.0156,861.5156 2512.2344,861.5156 C2512.5,861.5156 2512.7656,861.375 2512.9375,861.1563 C2513.0469,861 2513.0781,860.8125 2513.0781,860.3906 L2513.0781,858.9688 C2513.0781,858.5313 2513.0625,858.4063 2512.9688,858.25 C2512.8125,857.9844 2512.5313,857.8438 2512.2344,857.8438 C2511.9375,857.8438 2511.7344,857.9375 2511.5156,858.25 L2511.3438,858.1719 Z " fill="#000000"/><text fill="#000000" font-family="sans-serif" font-size="14" lengthAdjust="spacing" textLength="158" x="2523" y="867.3467">ExceptionDataEleicao</text><line style="stroke:#181818;stroke-width:0.5;" x1="2495" x2="2683" y1="878.5" y2="878.5"/><line style="stroke:#181818;stroke-width:0.5;" x1="2495" x2="2683" y1="886.5" y2="886.5"/></g><!--class ExceptionGeracaoDeRelatorios--><g id="elem_ExceptionGeracaoDeRelatorios"><rect codeLine="127" fill="#F1F1F1" height="48" id="ExceptionGeracaoDeRelatorios" rx="2.5" ry="2.5" style="stroke:#181818;stroke-width:0.5;" width="257" x="1674.5" y="846.5"/><ellipse cx="1689.5" cy="862.5" fill="#ADD1B2" rx="11" ry="11" style="stroke:#181818;stroke-width:1.0;"/><path d="M1691.8438,858.1719 C1690.9063,857.7344 1690.3125,857.5938 1689.4375,857.5938 C1686.8125,857.5938 1684.8125,859.6719 1684.8125,862.3906 L1684.8125,863.5156 C1684.8125,866.0938 1686.9219,867.9844 1689.8125,867.9844 C1691.0313,867.9844 1692.1875,867.6875 1692.9375,867.1406 C1693.5156,866.7344 1693.8438,866.2813 1693.8438,865.8906 C1693.8438,865.4375 1693.4531,865.0469 1692.9844,865.0469 C1692.7656,865.0469 1692.5625,865.125 1692.375,865.3125 C1691.9219,865.7969 1691.9219,865.7969 1691.7344,865.8906 C1691.3125,866.1563 1690.625,866.2813 1689.8594,866.2813 C1687.8125,866.2813 1686.5156,865.1875 1686.5156,863.4844 L1686.5156,862.3906 C1686.5156,860.6094 1687.7656,859.2969 1689.5,859.2969 C1690.0781,859.2969 1690.6875,859.4531 1691.1563,859.7031 C1691.6406,859.9844 1691.8125,860.2031 1691.9063,860.6094 C1691.9688,861.0156 1692,861.1406 1692.1406,861.2656 C1692.2813,861.4063 1692.5156,861.5156 1692.7344,861.5156 C1693,861.5156 1693.2656,861.375 1693.4375,861.1563 C1693.5469,861 1693.5781,860.8125 1693.5781,860.3906 L1693.5781,858.9688 C1693.5781,858.5313 1693.5625,858.4063 1693.4688,858.25 C1693.3125,857.9844 1693.0313,857.8438 1692.7344,857.8438 C1692.4375,857.8438 1692.2344,857.9375 1692.0156,858.25 L1691.8438,858.1719 Z " fill="#000000"/><text fill="#000000" font-family="sans-serif" font-size="14" lengthAdjust="spacing" textLength="225" x="1703.5" y="867.3467">ExceptionGeracaoDeRelatorios</text><line style="stroke:#181818;stroke-width:0.5;" x1="1675.5" x2="1930.5" y1="878.5" y2="878.5"/><line style="stroke:#181818;stroke-width:0.5;" x1="1675.5" x2="1930.5" y1="886.5" y2="886.5"/></g><!--class ExceptionProcessamentoArquivoCandidatos--><g id="elem_ExceptionProcessamentoArquivoCandidatos"><rect codeLine="131" fill="#F1F1F1" height="48" id="ExceptionProcessamentoArquivoCandidatos" rx="2.5" ry="2.5" style="stroke:#181818;stroke-width:0.5;" width="350" x="925" y="846.5"/><ellipse cx="940" cy="862.5" fill="#ADD1B2" rx="11" ry="11" style="stroke:#181818;stroke-width:1.0;"/><path d="M942.3438,858.1719 C941.4063,857.7344 940.8125,857.5938 939.9375,857.5938 C937.3125,857.5938 935.3125,859.6719 935.3125,862.3906 L935.3125,863.5156 C935.3125,866.0938 937.4219,867.9844 940.3125,867.9844 C941.5313,867.9844 942.6875,867.6875 943.4375,867.1406 C944.0156,866.7344 944.3438,866.2813 944.3438,865.8906 C944.3438,865.4375 943.9531,865.0469 943.4844,865.0469 C943.2656,865.0469 943.0625,865.125 942.875,865.3125 C942.4219,865.7969 942.4219,865.7969 942.2344,865.8906 C941.8125,866.1563 941.125,866.2813 940.3594,866.2813 C938.3125,866.2813 937.0156,865.1875 937.0156,863.4844 L937.0156,862.3906 C937.0156,860.6094 938.2656,859.2969 940,859.2969 C940.5781,859.2969 941.1875,859.4531 941.6563,859.7031 C942.1406,859.9844 942.3125,860.2031 942.4063,860.6094 C942.4688,861.0156 942.5,861.1406 942.6406,861.2656 C942.7813,861.4063 943.0156,861.5156 943.2344,861.5156 C943.5,861.5156 943.7656,861.375 943.9375,861.1563 C944.0469,861 944.0781,860.8125 944.0781,860.3906 L944.0781,858.9688 C944.0781,858.5313 944.0625,858.4063 943.9688,858.25 C943.8125,857.9844 943.5313,857.8438 943.2344,857.8438 C942.9375,857.8438 942.7344,857.9375 942.5156,858.25 L942.3438,858.1719 Z " fill="#000000"/><text fill="#000000" font-family="sans-serif" font-size="14" lengthAdjust="spacing" textLength="318" x="954" y="867.3467">ExceptionProcessamentoArquivoCandidatos</text><line style="stroke:#181818;stroke-width:0.5;" x1="926" x2="1274" y1="878.5" y2="878.5"/><line style="stroke:#181818;stroke-width:0.5;" x1="926" x2="1274" y1="886.5" y2="886.5"/></g><!--class ExceptionProcessamentoArquivoVotacao--><g id="elem_ExceptionProcessamentoArquivoVotacao"><rect codeLine="135" fill="#F1F1F1" height="48" id="ExceptionProcessamentoArquivoVotacao" rx="2.5" ry="2.5" style="stroke:#181818;stroke-width:0.5;" width="329" x="1310.5" y="846.5"/><ellipse cx="1325.5" cy="862.5" fill="#ADD1B2" rx="11" ry="11" style="stroke:#181818;stroke-width:1.0;"/><path d="M1327.8438,858.1719 C1326.9063,857.7344 1326.3125,857.5938 1325.4375,857.5938 C1322.8125,857.5938 1320.8125,859.6719 1320.8125,862.3906 L1320.8125,863.5156 C1320.8125,866.0938 1322.9219,867.9844 1325.8125,867.9844 C1327.0313,867.9844 1328.1875,867.6875 1328.9375,867.1406 C1329.5156,866.7344 1329.8438,866.2813 1329.8438,865.8906 C1329.8438,865.4375 1329.4531,865.0469 1328.9844,865.0469 C1328.7656,865.0469 1328.5625,865.125 1328.375,865.3125 C1327.9219,865.7969 1327.9219,865.7969 1327.7344,865.8906 C1327.3125,866.1563 1326.625,866.2813 1325.8594,866.2813 C1323.8125,866.2813 1322.5156,865.1875 1322.5156,863.4844 L1322.5156,862.3906 C1322.5156,860.6094 1323.7656,859.2969 1325.5,859.2969 C1326.0781,859.2969 1326.6875,859.4531 1327.1563,859.7031 C1327.6406,859.9844 1327.8125,860.2031 1327.9063,860.6094 C1327.9688,861.0156 1328,861.1406 1328.1406,861.2656 C1328.2813,861.4063 1328.5156,861.5156 1328.7344,861.5156 C1329,861.5156 1329.2656,861.375 1329.4375,861.1563 C1329.5469,861 1329.5781,860.8125 1329.5781,860.3906 L1329.5781,858.9688 C1329.5781,858.5313 1329.5625,858.4063 1329.4688,858.25 C1329.3125,857.9844 1329.0313,857.8438 1328.7344,857.8438 C1328.4375,857.8438 1328.2344,857.9375 1328.0156,858.25 L1327.8438,858.1719 Z " fill="#000000"/><text fill="#000000" font-family="sans-serif" font-size="14" lengthAdjust="spacing" textLength="297" x="1339.5" y="867.3467">ExceptionProcessamentoArquivoVotacao</text><line style="stroke:#181818;stroke-width:0.5;" x1="1311.5" x2="1638.5" y1="878.5" y2="878.5"/><line style="stroke:#181818;stroke-width:0.5;" x1="1311.5" x2="1638.5" y1="886.5" y2="886.5"/></g><!--class Genero--><g id="elem_Genero"><rect codeLine="139" fill="#F1F1F1" height="80.5938" id="Genero" rx="2.5" ry="2.5" style="stroke:#181818;stroke-width:0.5;" width="109" x="873.5" y="358.5"/><ellipse cx="899.3" cy="374.5" fill="#EB937F" rx="11" ry="11" style="stroke:#181818;stroke-width:1.0;"/><path d="M898.0969,375.375 L899.55,375.375 L899.55,375.4844 C899.55,375.8906 899.5813,376.0469 899.6594,376.2031 C899.8156,376.4531 900.0969,376.6094 900.3938,376.6094 C900.6438,376.6094 900.9094,376.4688 901.0656,376.25 C901.1906,376.0938 901.2219,375.9375 901.2219,375.4844 L901.2219,373.5625 C901.2219,373.4063 901.2219,373.3594 901.2063,373.2031 C901.1438,372.7344 900.8313,372.4219 900.3781,372.4219 C900.1281,372.4219 899.8625,372.5625 899.6906,372.7813 C899.5813,372.9531 899.55,373.1094 899.55,373.5625 L899.55,373.6875 L898.0969,373.6875 L898.0969,371.2813 L902.0813,371.2813 L902.0813,372.1406 C902.0813,372.5469 902.1125,372.7188 902.1906,372.875 C902.3625,373.125 902.6438,373.2813 902.925,373.2813 C903.1906,373.2813 903.4563,373.1406 903.6281,372.9219 C903.7375,372.75 903.7688,372.6094 903.7688,372.1406 L903.7688,369.5938 L896.1438,369.5938 C895.7063,369.5938 895.5813,369.6094 895.425,369.7031 C895.175,369.8594 895.0188,370.1563 895.0188,370.4375 C895.0188,370.7188 895.1594,370.9688 895.3781,371.1406 C895.5344,371.25 895.7219,371.2813 896.1438,371.2813 L896.3938,371.2813 L896.3938,377.7969 L896.1438,377.7969 C895.7375,377.7969 895.5813,377.8125 895.425,377.9219 C895.175,378.0938 895.0188,378.3594 895.0188,378.6563 C895.0188,378.9219 895.1594,379.1719 895.3781,379.3281 C895.5188,379.4531 895.7531,379.5 896.1438,379.5 L904.1438,379.5 L904.1438,376.9219 C904.1438,376.4844 904.1125,376.3438 904.0344,376.1875 C903.8625,375.9375 903.5813,375.7813 903.3,375.7813 C903.0344,375.7813 902.7688,375.8906 902.5969,376.1406 C902.4875,376.2969 902.4563,376.4375 902.4563,376.9219 L902.4563,377.7969 L898.0969,377.7969 L898.0969,375.375 Z " fill="#000000"/><text fill="#000000" font-family="sans-serif" font-size="14" lengthAdjust="spacing" textLength="53" x="915.7" y="379.3467">Genero</text><line style="stroke:#181818;stroke-width:0.5;" x1="874.5" x2="981.5" y1="390.5" y2="390.5"/><ellipse cx="884.5" cy="404.1484" fill="none" rx="3" ry="3" style="stroke:#038048;stroke-width:1.0;"/><text fill="#000000" font-family="sans-serif" font-size="14" lengthAdjust="spacing" textLength="83" x="893.5" y="407.4951">MASCULINO</text><ellipse cx="884.5" cy="420.4453" fill="none" rx="3" ry="3" style="stroke:#038048;stroke-width:1.0;"/><text fill="#000000" font-family="sans-serif" font-size="14" lengthAdjust="spacing" textLength="68" x="893.5" y="423.792">FEMININO</text><line style="stroke:#181818;stroke-width:0.5;" x1="874.5" x2="981.5" y1="431.0938" y2="431.0938"/></g><!--class TipoEleicao--><g id="elem_TipoEleicao"><rect codeLine="146" fill="#F1F1F1" height="80.5938" id="TipoEleicao" rx="2.5" ry="2.5" style="stroke:#181818;stroke-width:0.5;" width="115" x="723.5" y="358.5"/><ellipse cx="738.5" cy="374.5" fill="#EB937F" rx="11" ry="11" style="stroke:#181818;stroke-width:1.0;"/><path d="M737.2969,375.375 L738.75,375.375 L738.75,375.4844 C738.75,375.8906 738.7813,376.0469 738.8594,376.2031 C739.0156,376.4531 739.2969,376.6094 739.5938,376.6094 C739.8438,376.6094 740.1094,376.4688 740.2656,376.25 C740.3906,376.0938 740.4219,375.9375 740.4219,375.4844 L740.4219,373.5625 C740.4219,373.4063 740.4219,373.3594 740.4063,373.2031 C740.3438,372.7344 740.0313,372.4219 739.5781,372.4219 C739.3281,372.4219 739.0625,372.5625 738.8906,372.7813 C738.7813,372.9531 738.75,373.1094 738.75,373.5625 L738.75,373.6875 L737.2969,373.6875 L737.2969,371.2813 L741.2813,371.2813 L741.2813,372.1406 C741.2813,372.5469 741.3125,372.7188 741.3906,372.875 C741.5625,373.125 741.8438,373.2813 742.125,373.2813 C742.3906,373.2813 742.6563,373.1406 742.8281,372.9219 C742.9375,372.75 742.9688,372.6094 742.9688,372.1406 L742.9688,369.5938 L735.3438,369.5938 C734.9063,369.5938 734.7813,369.6094 734.625,369.7031 C734.375,369.8594 734.2188,370.1563 734.2188,370.4375 C734.2188,370.7188 734.3594,370.9688 734.5781,371.1406 C734.7344,371.25 734.9219,371.2813 735.3438,371.2813 L735.5938,371.2813 L735.5938,377.7969 L735.3438,377.7969 C734.9375,377.7969 734.7813,377.8125 734.625,377.9219 C734.375,378.0938 734.2188,378.3594 734.2188,378.6563 C734.2188,378.9219 734.3594,379.1719 734.5781,379.3281 C734.7188,379.4531 734.9531,379.5 735.3438,379.5 L743.3438,379.5 L743.3438,376.9219 C743.3438,376.4844 743.3125,376.3438 743.2344,376.1875 C743.0625,375.9375 742.7813,375.7813 742.5,375.7813 C742.2344,375.7813 741.9688,375.8906 741.7969,376.1406 C741.6875,376.2969 741.6563,376.4375 741.6563,376.9219 L741.6563,377.7969 L737.2969,377.7969 L737.2969,375.375 Z " fill="#000000"/><text fill="#000000" font-family="sans-serif" font-size="14" lengthAdjust="spacing" textLength="83" x="752.5" y="379.3467">TipoEleicao</text><line style="stroke:#181818;stroke-width:0.5;" x1="724.5" x2="837.5" y1="390.5" y2="390.5"/><ellipse cx="734.5" cy="404.1484" fill="none" rx="3" ry="3" style="stroke:#038048;stroke-width:1.0;"/><text fill="#000000" font-family="sans-serif" font-size="14" lengthAdjust="spacing" textLength="75" x="743.5" y="407.4951">ESTADUAL</text><ellipse cx="734.5" cy="420.4453" fill="none" rx="3" ry="3" style="stroke:#038048;stroke-width:1.0;"/><text fill="#000000" font-family="sans-serif" font-size="14" lengthAdjust="spacing" textLength="65" x="743.5" y="423.792">FEDERAL</text><line style="stroke:#181818;stroke-width:0.5;" x1="724.5" x2="837.5" y1="431.0938" y2="431.0938"/></g><!--class App--><g id="elem_App"><rect codeLine="1" fill="#F1F1F1" height="64.2969" id="App" rx="2.5" ry="2.5" style="stroke:#181818;stroke-width:0.5;" width="71" x="2600.5" y="7"/><ellipse cx="2619.55" cy="23" fill="#ADD1B2" rx="11" ry="11" style="stroke:#181818;stroke-width:1.0;"/><path d="M2621.8938,18.6719 C2620.9563,18.2344 2620.3625,18.0938 2619.4875,18.0938 C2616.8625,18.0938 2614.8625,20.1719 2614.8625,22.8906 L2614.8625,24.0156 C2614.8625,26.5938 2616.9719,28.4844 2619.8625,28.4844 C2621.0813,28.4844 2622.2375,28.1875 2622.9875,27.6406 C2623.5656,27.2344 2623.8938,26.7813 2623.8938,26.3906 C2623.8938,25.9375 2623.5031,25.5469 2623.0344,25.5469 C2622.8156,25.5469 2622.6125,25.625 2622.425,25.8125 C2621.9719,26.2969 2621.9719,26.2969 2621.7844,26.3906 C2621.3625,26.6563 2620.675,26.7813 2619.9094,26.7813 C2617.8625,26.7813 2616.5656,25.6875 2616.5656,23.9844 L2616.5656,22.8906 C2616.5656,21.1094 2617.8156,19.7969 2619.55,19.7969 C2620.1281,19.7969 2620.7375,19.9531 2621.2063,20.2031 C2621.6906,20.4844 2621.8625,20.7031 2621.9563,21.1094 C2622.0188,21.5156 2622.05,21.6406 2622.1906,21.7656 C2622.3313,21.9063 2622.5656,22.0156 2622.7844,22.0156 C2623.05,22.0156 2623.3156,21.875 2623.4875,21.6563 C2623.5969,21.5 2623.6281,21.3125 2623.6281,20.8906 L2623.6281,19.4688 C2623.6281,19.0313 2623.6125,18.9063 2623.5188,18.75 C2623.3625,18.4844 2623.0813,18.3438 2622.7844,18.3438 C2622.4875,18.3438 2622.2844,18.4375 2622.0656,18.75 L2621.8938,18.6719 Z " fill="#000000"/><text fill="#000000" font-family="sans-serif" font-size="14" lengthAdjust="spacing" textLength="30" x="2634.45" y="27.8467">App</text><line style="stroke:#181818;stroke-width:0.5;" x1="2601.5" x2="2670.5" y1="39" y2="39"/><line style="stroke:#181818;stroke-width:0.5;" x1="2601.5" x2="2670.5" y1="47" y2="47"/><ellipse cx="2611.5" cy="60.6484" fill="#84BE84" rx="3" ry="3" style="stroke:#038048;stroke-width:1.0;"/><text fill="#000000" font-family="sans-serif" font-size="14" lengthAdjust="spacing" text-decoration="underline" textLength="45" x="2620.5" y="63.9951">main()</text></g><!--reverse link App to Eleicao--><g id="link_App_Eleicao"><path codeLine="152" d="M2594.2103,40.4236 C2346.0703,43.0536 892.198,61.18 707,126 C672.615,138.035 638.67,154.348 606.089,173.046 " fill="none" id="App-backto-Eleicao" style="stroke:#181818;stroke-width:1.0;stroke-dasharray:7.0,7.0;"/><polygon fill="#181818" points="2600.21,40.36,2591.1681,36.4556,2595.2103,40.413,2591.2529,44.4552,2600.21,40.36" style="stroke:#181818;stroke-width:1.0;"/><text fill="#000000" font-family="sans-serif" font-size="13" lengthAdjust="spacing" textLength="84" x="841" y="114.0669">&#171;Instantiate&#187;</text></g><!--reverse link App to InputServices--><g id="link_App_InputServices"><path codeLine="153" d="M2594.2106,40.116 C2505.6406,41.386 2276.56,51.96 2099,126 C2012.42,162.104 1927.11,222.194 1860.08,276.725 " fill="none" id="App-backto-InputServices" style="stroke:#181818;stroke-width:1.0;stroke-dasharray:7.0,7.0;"/><polygon fill="#181818" points="2600.21,40.03,2591.1536,36.1594,2595.2105,40.1017,2591.2683,44.1586,2600.21,40.03" style="stroke:#181818;stroke-width:1.0;"/><text fill="#000000" font-family="sans-serif" font-size="13" lengthAdjust="spacing" textLength="39" x="2155" y="114.0669">&#171;use&#187;</text></g><!--reverse link App to OutputServices--><g id="link_App_OutputServices"><path codeLine="154" d="M2612.1676,76.1534 C2582.1676,121.6594 2528,203.826 2479.96,276.709 " fill="none" id="App-backto-OutputServices" style="stroke:#181818;stroke-width:1.0;stroke-dasharray:7.0,7.0;"/><polygon fill="#181818" points="2615.47,71.144,2607.1767,76.4564,2612.718,75.3185,2613.8559,80.8597,2615.47,71.144" style="stroke:#181818;stroke-width:1.0;"/><text fill="#000000" font-family="sans-serif" font-size="13" lengthAdjust="spacing" textLength="39" x="2594" y="114.0669">&#171;use&#187;</text></g><!--reverse link App to ExceptionArquivoCandidatos--><g id="link_App_ExceptionArquivoCandidatos"><path codeLine="155" d="M2670.6154,75.6101 C2683.5554,90.8371 2693.27,105.683 2700,126 C2735.15,232.107 2772.45,543.884 2700,629 C2561.09,792.188 2410.5,600.433 2224,706 C2164.36,739.759 2119.01,809.782 2098.32,846.262 " fill="none" id="App-backto-ExceptionArquivoCandidatos" style="stroke:#181818;stroke-width:1.0;"/><polygon fill="#181818" points="2666.73,71.038,2669.51,80.4864,2669.9678,74.8481,2675.6061,75.3059,2666.73,71.038" style="stroke:#181818;stroke-width:1.0;"/></g><!--link ExceptionArquivoPartidos to App--><g id="link_ExceptionArquivoPartidos_App"><path codeLine="156" d="M2360.48,846.203 C2378.44,809.308 2418.89,738.313 2477,706 C2532.85,674.946 2720.23,723.486 2763,676 C2848.51,581.051 2831.04,209.158 2763,101 C2743.14,69.426 2707.6945,55.2606 2677.5745,47.8106 " fill="none" id="ExceptionArquivoPartidos-to-App" style="stroke:#181818;stroke-width:1.0;"/><polygon fill="#181818" points="2671.75,46.37,2679.5263,52.414,2676.6037,47.5705,2681.4471,44.648,2671.75,46.37" style="stroke:#181818;stroke-width:1.0;"/></g><!--link ExceptionDataEleicao to App--><g id="link_ExceptionDataEleicao_App"><path codeLine="157" d="M2640.29,846.472 C2699.53,816.701 2793.94,758.678 2834,676 C2945.42,446.014 2985.79,306.593 2834,101 C2796.61,50.36 2723.818,40.606 2677.688,39.406 " fill="none" id="ExceptionDataEleicao-to-App" style="stroke:#181818;stroke-width:1.0;"/><polygon fill="#181818" points="2671.69,39.25,2680.5829,43.4827,2676.6883,39.38,2680.791,35.4854,2671.69,39.25" style="stroke:#181818;stroke-width:1.0;"/></g><!--reverse link Eleicao to Partido--><g id="link_Eleicao_Partido"><path codeLine="159" d="M413.4656,640.6286 C422.1056,666.4666 426.97,681.013 435.251,705.776 " fill="none" id="Eleicao-backto-Partido" style="stroke:#181818;stroke-width:1.0;"/><polygon fill="none" points="409.66,629.248,407.7693,636.2068,413.4656,640.6286,415.3563,633.6698,409.66,629.248" style="stroke:#181818;stroke-width:1.0;"/></g><!--reverse link Eleicao to Candidato--><g id="link_Eleicao_Candidato"><path codeLine="160" d="M245.3974,640.5235 C234.9694,669.1555 228.608,686.62 218.722,713.765 " fill="none" id="Eleicao-backto-Candidato" style="stroke:#181818;stroke-width:1.0;"/><polygon fill="none" points="249.504,629.248,243.6922,633.5169,245.3974,640.5235,251.2092,636.2546,249.504,629.248" style="stroke:#181818;stroke-width:1.0;"/></g><!--reverse link TipoEleicao to Eleicao--><g id="link_TipoEleicao_Eleicao"><path codeLine="162" d="M717.264,399 C685.806,399 650.338,399 606.188,399 " fill="none" id="TipoEleicao-backto-Eleicao" style="stroke:#181818;stroke-width:1.0;"/><polygon fill="#181818" points="723.264,399,714.264,395,718.264,399,714.264,403,723.264,399" style="stroke:#181818;stroke-width:1.0;"/><ellipse cx="629.25" cy="388.0664" fill="none" rx="3" ry="3" style="stroke:#038048;stroke-width:1.0;"/><text fill="#000000" font-family="sans-serif" font-size="13" lengthAdjust="spacing" textLength="69" x="636.25" y="392.0669">tipoEleicao</text></g><!--reverse link Genero to Candidato--><g id="link_Genero_Candidato"><path codeLine="163" d="M927.3355,445.6335 C924.5735,497.5835 911.738,581.642 856,629 C672.259,785.116 533.52,595.936 319,706 C313.31,708.919 307.71,712.127 302.212,715.574 " fill="none" id="Genero-backto-Candidato" style="stroke:#181818;stroke-width:1.0;"/><polygon fill="#181818" points="927.654,439.642,923.1818,448.4169,927.3885,444.6349,931.1705,448.8417,927.654,439.642" style="stroke:#181818;stroke-width:1.0;"/><ellipse cx="819" cy="668.0664" fill="none" rx="3" ry="3" style="stroke:#038048;stroke-width:1.0;"/><text fill="#000000" font-family="sans-serif" font-size="13" lengthAdjust="spacing" textLength="45" x="826" y="672.0669">genero</text></g><!--link Candidato to Partido--><g id="link_Candidato_Partido"><path codeLine="165" d="M308.297,870.5 C319.784,870.5 319.271,870.5 330.758,870.5 " fill="none" id="Candidato-Partido" style="stroke:#181818;stroke-width:1.0;"/><polygon fill="#181818" points="302.297,870.5,311.297,874.5,307.297,870.5,311.297,866.5,302.297,870.5" style="stroke:#181818;stroke-width:1.0;"/><polygon fill="#181818" points="336.758,870.5,327.758,866.5,331.758,870.5,327.758,874.5,336.758,870.5" style="stroke:#181818;stroke-width:1.0;"/></g><!--reverse link Partido to PartidoComaparadorPorCandidato--><g id="link_Partido_PartidoComaparadorPorCandidato"><path codeLine="167" d="M648.8817,816.5084 C755.7807,776.1194 892.218,714.361 999,629 C1071.13,571.34 1131.61,479.096 1160.23,431.177 " fill="none" id="Partido-backto-PartidoComaparadorPorCandidato" style="stroke:#181818;stroke-width:1.0;"/><polygon fill="#181818" points="643.269,818.629,653.1019,819.1899,647.9463,816.8618,650.2744,811.7062,643.269,818.629" style="stroke:#181818;stroke-width:1.0;"/></g><!--reverse link OutputServices to ExceptionGeracaoDeRelatorios--><g id="link_OutputServices_ExceptionGeracaoDeRelatorios"><path codeLine="169" d="M2246.6124,524.9428 C2199.1724,561.3958 2150.38,596.618 2099,629 C2035.6,668.953 2008.29,660.169 1949,706 C1894.5,748.127 1844.08,812.416 1819.22,846.47 " fill="none" id="OutputServices-backto-ExceptionGeracaoDeRelatorios" style="stroke:#181818;stroke-width:1.0;"/><polygon fill="#181818" points="2251.37,521.287,2241.7963,523.5989,2247.4053,524.3335,2246.6707,529.9424,2251.37,521.287" style="stroke:#181818;stroke-width:1.0;"/></g><!--reverse link InputServices to ExceptionProcessamentoArquivoVotacao--><g id="link_InputServices_ExceptionProcessamentoArquivoVotacao"><path codeLine="171" d="M1659.1023,526.4995 C1599.4523,637.6245 1518.65,788.175 1487.41,846.377 " fill="none" id="InputServices-backto-ExceptionProcessamentoArquivoVotacao" style="stroke:#181818;stroke-width:1.0;"/><polygon fill="#181818" points="1661.94,521.213,1654.1591,527.251,1659.5752,525.6184,1661.2078,531.0346,1661.94,521.213" style="stroke:#181818;stroke-width:1.0;"/></g><!--link ExceptionProcessamentoArquivoCandidatos to InputServices--><g id="link_ExceptionProcessamentoArquivoCandidatos_InputServices"><path codeLine="172" d="M1125.92,846.262 C1162.41,813.854 1231.35,753.697 1293,706 C1374.94,642.605 1463.6372,579.3187 1542.9072,524.4287 " fill="none" id="ExceptionProcessamentoArquivoCandidatos-to-InputServices" style="stroke:#181818;stroke-width:1.0;"/><polygon fill="#181818" points="1547.84,521.013,1538.1636,522.848,1543.7293,523.8594,1542.7179,529.4251,1547.84,521.013" style="stroke:#181818;stroke-width:1.0;"/></g><!--SRC=[hLXRRoet47xVNs6bBqG9gAtw5A58d2n9aO1m0ibBrGTdTzZuTB7ts5vQASf_hxrUN_O2kV82p8m_pupdPYSv5W9DYk8vGkfpzYmabYHvsM521wVHInGLEFa7Pu1EKgQ99-YNkFgO1Kcr_WhJbAHOCaFKdo4jTy2PurmWGcN0PJjml7jEyGLQIqvevaKK1yUmn28XEw0QOSuIdCTOWXTAM4eojYQon0bc6oPnlYavLSAFZEM0gHVDW2g5Bj1DzTrKPKCA5eEGX6gO1oQPw2hqiyHKAeLJg0KQ5a4EHB8L4qGXj7Y5eTu0ntcRXRd23FsqCfJ8oOn6Qv0Ik41hiYjo4ADHmBlfy1ppB64xXGyRDd3uY9rwlcJ6ne6XlKJ1cTPgT4wqfhVC42JBiMErFMTMNaEg7D3rpbvxSudde4uenVskQr4JQuw8lK9p8kJO6Nhv5GxCG5PdlMGx5Hf434wxF1rq7Svt5oinJAl84BMUBK6dhz3gXqnduqB1gvrmodeWl1HGTaJCHKBDHCMlFOUkLLNUVkxpz0LQu68yerAT4pz7WQFRmTmMhRSC17DprjOdukhGBdRf7-rmgG-aBvJw0qcg5A_Dkq0R_wTPS9o4hpLV44OuJUsPA9rG8v7Ewsn1OGgT8o_dqkQq0UXSDcZIQ-jNhReYWfqTqVaNrIVNZCrb9Ht30ywmYArl3WPm7USj_eQfyxqDJlZWUX_duhKzrb0hiy0_62SISu9VMxFYh60y8OpYl2Lhmx2TWW7hbgT0jMehnljjyUt1RiZuJF_j5_fJjHtQvpCliYZp9-1WXB1mLJhiogKa-SXajrA8Yzx-R8D1TN0jbp8UMl7SAHE-IFmMXCZl1_Sdx2JSRaQBKgw1xqa28a2tmqN2GINMjtAxLTQbTw1CvOCw2meidqwxImhE59R0VC9_bcGVndKJ1prMVpt_t1Or1ERx3UWw2dMazqBNp2EuGujBj2Ek6TzXNHkiYKd9kHfeveH2pvgoK6g33Rj1QnDRBVxwsyAe6eNxjXOFE2T1bR2RLmFJ5UQPhpo65eCQdfv0s64gg1AwT0JrisSxPDJssxr9xoFr9p34WPfa6RXwQVGyw4CV0pEwryvugplVffPk_fMF-ttRyfbpjYd1EeZsaFS0krYiXWjdGxtJHyFX0Afrp7jmNy__sr8UBm2PQMWnt46kgnRfdaoF3JHiHxOPTHHNJUiHk4awHBSzE4cdOtqA96nRdm9QSVXHfchTfv6-gIlEbYJaeqXxK-Awqzad75PmTOqZd4tlSqbslhh4RZB-42oqUkrh41r23CbHM7DT_2fSgM-eLGv-5UAMv9Ah6p3DoXppLLwgEsOrwwdCBi6L7LRAW-aB_oLGI3KOYKOQJosvqtC_365F-lq0iH_Etx_ufbjltW-ogajezHZn1IxfmwjdYnumLVmiZlvTls84jNKnML_TpsVBMq-wdYvcIqjvUGDeS2qAaAVhpII-dyn3u7XwLnCgt4bHeF4ePV_I4N9NgB6wngaWLSEiQiQNbxNGg3aUQh5IXEnczsZnXvnaJt9uB3QDN0xR7Z4NVqQeB8Rz4HRPv6J3eNkG2MbkloWAdAOWlVbdGVUFp75fVl3ISsQUfAB8lyvO0o_zCv2THSP3xT_XAyDy53NzvvOTJOQeSIRTDSTYjRsquTJZIVC_]--></g></svg>